<?xml version="1.0" encoding="UTF-8" standalone="no"?>
<!-- Created with Inkscape (http://www.inkscape.org/) -->

<svg
   version="1.1"
   id="svg1"
   width="628"
   height="350"
   viewBox="0 0 628 350"
   xmlns="http://www.w3.org/2000/svg"
   xmlns:svg="http://www.w3.org/2000/svg">
  <defs
     id="defs1" />
  <g
     id="g1">
    <path
       id="rect1"
       style="fill:#deac00;fill-opacity:1;stroke:none;stroke-width:1.18107;stroke-linecap:round;stroke-linejoin:round;stroke-miterlimit:155.5;paint-order:stroke fill markers"
       d="M 69.040169,36.792892 C 61.005195,47.6501 64.402131,64.55563 57.217969,76.687814 44.735798,97.76695 20.94897,94.506481 0,100.37542 v 1.24671 c 21.31791,1.57985 47.611747,4.65105 57.982962,24.93432 6.09857,11.92719 5.579493,25.07838 9.729512,37.40149 h 1.327695 c 0.05696,-19.38119 4.645301,-44.86303 25.226216,-54.17858 12.829015,-5.8068 26.868655,-4.84564 39.830865,-9.40394 V 99.128699 C 91.608817,98.798492 69.06805,76.301444 69.040169,36.792892 Z M 309.17413,49.620433 c -10.82183,0.04641 -21.78266,0.324993 -33.01346,0.837648 -15.05787,0.687349 -43.02145,0.318869 -55.70616,8.437245 -11.02887,7.058607 -21.66338,33.145548 -23.95557,45.220244 16.2413,-1.21549 12.46649,-11.996503 20.7245,-22.440898 7.70812,-9.748892 19.00891,-16.28195 31.05562,-20.322438 51.06157,-17.126168 105.60348,-8.494627 157.99578,-4.611881 v -1.246712 c -33.42846,-4.053747 -64.63521,-6.012296 -97.10071,-5.873208 z m -278.637132,0.88634 -7.966174,7.480301 7.966174,6.23358 6.638477,-6.23358 v -1.246721 z m 304.345682,5.544483 c -6.32085,-0.0064 -12.62558,0.174176 -18.89114,0.57709 -7.27504,0.46783 -15.78167,-1.316343 -22.57082,1.358728 35.37525,2.621639 74.84442,-2.382482 108.87104,8.9973 7.93245,2.652905 36.86591,15.672867 23.58993,26.344179 -5.49185,4.414401 -14.16942,4.217103 -20.93455,5.081831 -21.11677,2.699116 -42.60411,-0.528397 -63.72938,-0.528397 -59.93828,0 -126.9311,-2.471476 -179.2389,29.921183 v 1.24672 c 91.74311,-35.866267 187.4251,-24.93432 284.12685,-24.93432 -3.14238,-12.748551 -11.63533,-31.611527 -23.95039,-38.825956 -7.95619,-4.6609 -21.36547,-4.008612 -30.48513,-5.16218 -18.7086,-2.366531 -37.82497,-4.058078 -56.78751,-4.076178 z M 180.98409,87.725641 c -7.84516,-0.670215 -18.22307,3.785935 -19.16341,10.136873 -1.24861,8.432896 27.30004,12.218866 30.69517,7.499766 l -25.22621,-7.480293 c 7.13156,-7.087534 16.30813,-6.772996 18.58774,3.740143 h 2.65538 c 0.46626,-3.544201 2.13141,-8.521978 -0.99057,-11.398196 -1.60887,-1.482202 -3.94305,-2.274897 -6.5581,-2.498293 z m 285.64385,1.373333 c -9.26286,-0.656101 -18.11616,4.343706 -9.90067,13.769876 1.78248,-10.808694 11.90867,-11.651993 18.58774,-3.740151 L 450.0888,106.609 c 3.51032,4.37602 34.85885,0.11943 30.05726,-9.954261 -2.25486,-4.730659 -7.96041,-7.162115 -13.51812,-7.555765 z M 316.92507,106.26566 c -13.04746,0.15627 -26.17127,0.86742 -39.4367,2.48613 -15.60341,1.90401 -34.80571,2.60337 -49.12474,9.07766 l 71.69556,-7.4803 c -5.15491,17.18465 -11.80676,33.64852 -16.08275,51.11535 -2.0427,8.34422 -1.75367,18.21573 -4.79993,26.18105 -2.56831,6.71558 -11.21884,16.18874 -18.96116,17.81927 -8.38129,1.7651 -7.61248,-6.5208 -6.73182,-11.58569 1.91306,-11.00232 5.84016,-25.816 14.71097,-33.66134 l -1.32769,12.46716 5.31077,1.24671 c 5.31954,-20.98051 -14.67283,-27.69395 -27.15292,-9.95425 -10.83491,15.40124 -12.02729,59.31169 20.13585,45.84361 5.21016,-2.18171 9.57952,-6.07489 13.65556,-9.70831 1.78223,20.48968 20.0737,19.02785 29.20929,2.49343 16.20158,10.35894 29.72257,11.95834 45.14166,-1.24672 5.5472,17.38032 23.08597,10.57747 29.2093,-2.49343 h 2.65539 c 6.20871,16.67211 19.4399,14.7872 30.537,3.74015 1.23969,4.43527 4.94429,15.8569 11.95703,9.2213 11.67901,-11.05088 13.53714,-31.90882 25.21845,-44.12936 -2.47684,11.99298 -7.55436,25.05806 -4.85439,37.40149 3.37976,15.45122 18.83527,10.69991 26.09752,1.24671 h 1.32769 c 7.53115,8.9212 19.60089,7.38659 25.22622,-2.49343 1.90653,3.92573 5.08555,12.29477 11.39432,8.66857 4.16258,-2.39256 5.52151,-9.73612 7.5357,-13.65543 5.26055,-10.23613 10.11649,-23.80994 19.57314,-31.16791 -4.36715,10.86976 -11.47497,36.13434 -0.61976,45.31278 8.17265,6.91019 13.84174,-1.53127 20.91381,-4.34403 4.42501,-1.75992 9.40276,2.07575 14.22605,1.01783 7.28147,-1.59713 11.42198,-9.59356 15.93234,-14.55882 l -3.98308,31.16791 c -26.07704,4.36762 -51.77761,36.39843 -38.42539,60.95759 9.44756,17.37708 29.263,3.43132 36.36122,-7.3488 4.06619,-6.17538 5.02093,-13.19205 7.47867,-19.94746 3.26008,-8.96095 6.97875,-17.91259 7.86244,-27.42775 L 628,233.77404 c -4.68884,-9.21401 -15.16162,-11.14116 -25.22622,-11.22045 2.17526,-16.14866 4.12344,-32.62643 7.2012,-48.62193 1.32989,-6.91162 5.6073,-15.43111 5.0385,-22.42141 -0.43021,-5.28764 -9.24599,-10.1493 -13.53627,-5.32776 -2.74114,3.08055 -2.85078,10.14761 -4.0142,14.0353 -19.20665,-21.95171 -35.17261,12.12627 -38.1557,27.42776 -0.89885,4.6105 0.36074,10.74946 -1.76335,14.94112 -2.30277,4.54436 -6.95233,6.56964 -11.86108,7.49976 0.001,-15.21872 10.60815,-33.79599 6.21579,-48.48801 -1.71193,-5.72621 -9.19703,-6.80998 -13.95637,-3.81561 -8.38183,5.27346 -14.75173,15.98173 -17.48564,24.87587 h -1.3277 c 0.52747,-11.53413 7.47245,-27.42786 -7.96617,-32.41462 -5.77358,17.84163 -3.2732,48.29238 -23.89852,57.34894 -1.53146,-8.10783 0.51932,-15.73938 2.40904,-23.6876 1.11327,-4.68249 3.03448,-9.10193 4.39281,-13.71388 1.7283,-5.86819 -4.76283,-22.85342 -11.81441,-13.50446 -9.05539,12.00552 -8.7331,29.58573 -9.88253,43.37451 -0.32191,3.86209 -4.05147,9.08358 -8.82191,8.63692 -5.92593,-0.55487 -2.63963,-10.32753 -2.05897,-13.57265 1.71889,-9.60641 7.42458,-21.44506 5.55714,-31.16302 -3.28134,-17.07577 -20.35582,-2.25073 -25.16917,4.98199 -2.93808,4.41486 -5.5807,8.91476 -7.71982,13.71387 h -1.3277 c 0.92661,-11.02433 8.16449,-27.5721 -6.63847,-32.41462 -2.32639,6.8936 -3.94291,14.15261 -5.80609,21.19417 -1.2027,4.54541 -1.56641,9.1826 -2.67354,13.71388 -0.9227,3.7766 -13.32553,25.31866 -16.32132,14.8632 -5.24791,-18.31558 26.48258,-49.20771 -4.40836,-56.00483 -0.87017,14.91322 -17.93115,9.52097 -27.82456,17.83389 -9.46949,7.9567 -10.34528,18.22775 -15.52781,28.1826 -4.56067,8.76037 -30.15104,26.25657 -29.61124,6.34559 0.12068,-4.45159 0.83301,-9.88619 3.57595,-13.64084 2.44709,-3.34966 6.01282,-4.52136 9.62062,-6.40646 10.29482,-5.37908 25.01298,-28.6058 2.67613,-27.17695 -34.73009,2.22163 -22.27814,48.48612 -47.79704,59.69141 0.002,-24.22397 11.68355,-46.2255 16.03867,-69.8161 2.00195,-10.84419 7.94054,-21.77413 -5.4171,-27.42776 v -1.24671 h 111.52643 v 1.24671 c -18.6958,0.36244 -45.94818,1.27671 -62.4017,9.97373 4.67075,6.9474 14.55718,9.62754 22.57083,12.03861 20.84234,6.27077 41.82907,3.844 62.40169,-2.30838 11.86084,-3.54705 24.40274,-10.41643 37.17548,-9.65718 7.61332,0.45257 12.88047,5.73682 15.07141,12.39411 1.21173,3.68197 0.59445,10.59579 6.22358,11.17418 8.5181,0.87524 9.33271,-16.25795 -4.03496,-13.66761 -2.79927,-6.27028 -8.3724,-17.05096 -15.9842,-19.06356 -6.86635,-1.81546 -16.36646,6.18272 -22.51896,8.52492 -13.74067,5.23088 -26.71786,5.72512 -41.15857,7.01033 -10.54885,0.93885 -28.85984,1.19699 -34.52008,-8.93885 l 57.09091,-7.4803 v -1.24671 c -39.62317,-0.0246 -78.08896,-4.55227 -117.23138,-4.08349 z m -200.08786,10.88442 c -34.714513,0.62679 -44.748877,36.52956 -46.344874,63.01516 -1.027849,17.05719 5.555689,35.27369 26.42944,35.58256 32.085174,0.47474 41.335804,-48.02048 41.882054,-70.4906 0.32805,-13.49502 -4.88406,-28.41555 -21.96662,-28.10712 z m 3.08845,9.41368 c 4.28276,0.63996 7.50549,4.66546 7.53311,13.70657 l -6.63847,-12.46716 h -1.3277 c -4.03809,9.75681 -8.53539,14.62795 -19.915432,16.20731 3.129612,-10.17771 13.210562,-18.51331 20.348492,-17.44672 z m 83.33103,4.67031 c -6.88947,1.63194 -6.86774,15.08527 1.15656,13.94764 7.48328,-1.06094 6.83018,-15.83952 -1.15656,-13.94764 z M 98.249472,145.2572 c 13.010998,0.53401 16.168568,6.76605 22.570828,16.2073 l 6.63847,-12.46715 c -0.34506,15.61631 -7.16636,34.2448 -16.10868,47.37521 -2.75945,4.05186 -10.07317,12.80505 -16.150176,8.68562 -4.583763,-3.10724 -4.850085,-11.44675 -4.911425,-16.16592 -0.198942,-15.28893 5.826195,-28.76097 7.960983,-43.63506 z m 79.661728,4.98686 -22.57082,46.1285 c 0,-11.90071 5.98844,-40.75413 -9.29387,-44.88178 -1.37905,16.38588 -5.23003,29.66172 -1.16951,46.12849 1.34958,5.47306 2.48699,13.18711 9.17459,15.20897 7.0195,2.12217 10.30454,-6.79995 12.08928,-11.46882 4.72588,-12.36297 17.94324,-38.72396 14.42572,-51.11536 z m 14.60465,2.49343 c -8.02936,13.24845 -17.45643,37.48079 -9.6595,52.34261 10.71566,20.42522 31.16345,-3.72807 33.55802,-16.18784 -4.00577,2.88527 -6.68652,6.34373 -9.90845,9.97373 -1.9819,2.23291 -9.15979,10.55701 -11.80922,4.72876 -7.50178,-16.50253 23.07809,-39.75755 -2.18085,-50.85726 z m 150.04258,2.86356 c 0.94853,-0.0161 1.92661,0.28423 2.92766,0.98374 8.20001,5.72985 -10.85876,16.95888 -14.88989,18.5936 0.20905,-3.78461 5.3224,-19.46508 11.96223,-19.57734 z m 244.95464,4.45847 c 0.57482,-0.005 1.18724,0.11108 1.84114,0.37742 5.26408,2.14397 4.15131,9.34473 3.30367,13.49472 -2.05628,10.06701 -11.89433,23.02115 -21.74879,27.42776 0.24829,-11.29367 4.39088,-22.13146 9.12272,-32.41461 1.29855,-2.822 3.45746,-8.84957 7.48126,-8.88529 z M 390.3425,161.4645 c -1.25708,14.93559 -5.93284,37.6004 -23.89852,42.38835 0.12851,-14.57951 6.05807,-38.99887 23.89852,-42.38835 z m -54.82191,73.47103 c -5.47317,0.67171 -13.77966,24.12943 -0.94131,17.53925 -3.77648,-4.75549 -1.30824,-9.58656 0,-14.9606 l 3.98309,1.24673 c -0.6666,-2.9211 -1.77873,-3.98038 -3.04178,-3.82538 z m -19.58091,0.79138 c -7.42865,1.18678 -9.81613,18.34434 -1.33807,17.41262 7.5727,-0.8322 11.36133,-19.01394 1.33807,-17.41262 z m 1.37956,0.54056 c 3.73378,4.81508 1.31995,10.00694 -1.3277,14.9606 h -2.65539 z m 266.86681,2.49344 c -2.2507,7.4474 -4.22145,14.89995 -6.08096,22.44088 -1.35305,5.48718 -11.52232,36.00653 -21.88364,23.29071 -11.36209,-13.94397 14.35678,-42.17795 27.9646,-45.73159 z m -177.91121,6.23358 -30.537,1.24671 h 106.21565 v -1.24671 z m -203.13742,1.24671 -30.537,1.24672 h 99.57716 v -1.24672 z" />
  </g>
</svg>
